<svg xmlns="http://www.w3.org/2000/svg" viewBox="0 0 256 256"><rect width="256" height="256" fill="#2a9d8f"/><circle cx="210" cy="46" r="60" fill="#34b3a3"/><path d="M48 98 L70 34 L112 80 Q128 74 144 80 L186 34 L208 98 Q214 152 128 216 Q42 152 48 98 Z" fill="#e8743b"/><path d="M74 62 L98 90 L72 102 Z" fill="#2b2118"/><path d="M182 62 L158 90 L184 102 Z" fill="#2b2118"/><path d="M48 124 Q60 172 128 216 Q98 170 100 142 Q74 152 48 124 Z" fill="#fff4e6"/><path d="M208 124 Q196 172 128 216 Q158 170 156 142 Q182 152 208 124 Z" fill="#fff4e6"/><circle cx="98" cy="134" r="9" fill="#2b2118"/><circle cx="158" cy="134" r="9" fill="#2b2118"/><circle cx="101" cy="130" r="3" fill="#fff"/><circle cx="161" cy="130" r="3" fill="#fff"/><ellipse cx="128" cy="203" rx="11" ry="8" fill="#2b2118"/></svg>
