<?xml version="1.0" encoding="UTF-8"?>
<svg version="1.1" xmlns="http://www.w3.org/2000/svg" width="4267" height="4267">

<path d="M0 0 C4.735504 0.01348076 9.47091485 0.0081467 14.20642948 0.00313663 C42.18671126 -0.0192173 70.051832 0.49419285 97.97515869 2.3225708 C99.10928192 2.39573517 100.24340515 2.46889954 101.41189575 2.54428101 C107.58670347 2.95381429 113.75025061 3.44487975 119.91265869 4.0100708 C120.81386444 4.09116089 121.71507019 4.17225098 122.64358521 4.25579834 C174.29181522 8.96697882 225.5749007 18.2017758 275.97515869 30.3225708 C277.0967337 30.592005 277.0967337 30.592005 278.2409668 30.86688232 C355.59978256 49.52090151 430.18201071 77.54987126 547.53619385 136.92169189 C550.51129063 138.63051125 553.51918895 140.27319909 556.53326416 141.91192627 C576.01671621 152.53154689 594.91673297 164.36467082 613.40582275 176.61993408 C616.2347051 178.49456592 619.06993678 180.3594112 621.90484619 182.22491455 C639.75845641 194.01007715 656.96248094 206.46071273 673.93609619 219.47491455 C677.69049024 222.35063572 681.47116254 225.18678665 685.27227783 228.00030518 C694.43800036 234.79295465 703.23771836 241.98998233 711.97515869 249.3225708 C712.85881104 250.06337891 712.85881104 250.06337891 713.76031494 250.81915283 C716.97228501 253.51597805 720.17195128 256.22683657 723.362854 258.94854736 C725.06187458 260.39647102 726.76459549 261.83997392 728.46734619 263.2835083 C735.12562183 268.94308816 741.65993357 274.70539471 748.06109619 280.65460205 C750.25298677 282.66138659 752.46282989 284.62566952 754.70635986 286.57305908 C767.97661049 298.17192717 780.4454687 310.63247042 792.88751221 323.10455322 C795.56206204 325.78452361 798.24199845 328.45902564 800.92242432 331.13311768 C802.64995902 332.86131232 804.37718395 334.58981669 806.10406494 336.31866455 C806.89269424 337.10526962 807.68132355 337.89187469 808.49385071 338.70231628 C812.62789686 342.85376848 816.60918743 347.07996655 820.42085266 351.53015137 C823.13192462 354.6565486 826.00394135 357.63223959 828.85015869 360.6350708 C833.74365717 365.83360511 838.38625989 371.14247434 842.84234619 376.72491455 C845.08645144 379.45811966 847.44383622 382.04393673 849.85015869 384.6350708 C854.09312908 389.24528438 857.97392532 394.04184038 861.80108643 398.99420166 C864.90024986 402.99296451 868.10858604 406.86712275 871.41265869 410.6975708 C876.59062277 416.72772217 881.3455614 423.0338047 886.07281494 429.42022705 C888.65557536 432.90903992 891.30486344 436.33782041 893.97515869 439.7600708 C903.56365051 452.19130459 912.3750164 465.19427247 920.97515869 478.3225708 C921.40119385 478.9712915 921.827229 479.62001221 922.26617432 480.28839111 C933.247665 497.03719801 943.7944906 514.07545889 953.97515869 531.3225708 C954.47595947 532.17093506 954.97676025 533.01929932 955.49273682 533.89337158 C963.91404694 548.18822239 972.16332675 562.57425123 980.19000244 577.09454346 C981.40782997 579.29669275 982.62934407 581.49680635 983.85406494 583.69512939 C1004.97515869 621.67081259 1004.97515869 621.67081259 1004.97515869 640.3225708 C1003.88976807 640.72089111 1002.80437744 641.11921143 1001.68609619 641.52960205 C1000.24071762 642.06457983 998.79540881 642.59974611 997.35015869 643.1350708 C996.63730713 643.39610596 995.92445557 643.65714111 995.19000244 643.92608643 C990.97310976 645.49291352 986.96656823 647.22965405 982.97515869 649.3225708 C975.65115515 653.10574175 975.65115515 653.10574175 971.66265869 654.3850708 C968.96283624 655.0992552 968.96283624 655.0992552 967.47515869 656.8850708 C965.28114456 658.98766768 962.918785 658.83196642 959.97515869 659.3225708 C959.26359619 660.0650708 959.26359619 660.0650708 958.53765869 660.8225708 C956.10134749 663.16142955 953.23432906 662.90008575 949.97515869 663.3225708 C949.64515869 663.9825708 949.31515869 664.6425708 948.97515869 665.3225708 C945.9432731 667.20443083 944.72998514 667.3225708 940.97515869 667.3225708 C940.64515869 667.9825708 940.31515869 668.6425708 939.97515869 669.3225708 C937.03765869 671.0100708 937.03765869 671.0100708 933.97515869 672.3225708 C933.31515869 671.9925708 932.65515869 671.6625708 931.97515869 671.3225708 C931.64515869 671.9825708 931.31515869 672.6425708 930.97515869 673.3225708 C929.03365616 674.43285818 927.04403243 675.45932257 925.03765869 676.4475708 C924.42156738 676.75106445 923.80547607 677.05455811 923.17071533 677.36724854 C916.62881965 680.55424272 909.97218208 683.48147344 903.31109619 686.4085083 C898.47588092 688.53464636 893.68342505 690.74545388 888.89312744 692.9710083 C886.21944077 694.20942274 883.53693873 695.4254026 880.85015869 696.6350708 C876.98443194 698.387752 873.14442134 700.18862031 869.31378174 702.0166626 C853.30810298 709.65144374 837.16989844 717.00321403 821.04278564 724.37695312 C819.1533708 725.24106649 817.26443498 726.10622707 815.37554932 726.97149658 C812.51492171 728.28048518 809.65204684 729.58433678 806.78765869 730.8850708 C805.99367676 731.24858643 805.19969482 731.61210205 804.38165283 731.9866333 C799.2079532 734.3225708 799.2079532 734.3225708 796.97515869 734.3225708 C796.64515869 734.9825708 796.31515869 735.6425708 795.97515869 736.3225708 C793.93272341 736.95643003 791.8838335 737.34083584 789.78765869 737.7600708 C789.18953369 737.9456958 788.59140869 738.1313208 787.97515869 738.3225708 C787.64515869 738.9825708 787.31515869 739.6425708 786.97515869 740.3225708 C784.93272341 740.95643003 782.8838335 741.34083584 780.78765869 741.7600708 C780.18953369 741.9456958 779.59140869 742.1313208 778.97515869 742.3225708 C778.64515869 742.9825708 778.31515869 743.6425708 777.97515869 744.3225708 C775.07256058 745.6974857 773.21377164 746.3225708 769.97515869 746.3225708 C769.64515869 746.9825708 769.31515869 747.6425708 768.97515869 748.3225708 C767.21617852 749.24216793 765.41717714 750.08625036 763.60015869 750.8850708 C762.62304932 751.31948486 761.64593994 751.75389893 760.63922119 752.20147705 C757.97515869 753.3225708 757.97515869 753.3225708 754.97515869 754.3225708 C754.31515869 754.9825708 753.65515869 755.6425708 752.97515869 756.3225708 C751.84078369 756.6319458 750.70640869 756.9413208 749.53765869 757.2600708 C746.05831137 757.97877706 746.05831137 757.97877706 744.47515869 759.8850708 C742.08492761 762.17570892 739.16655863 761.90887081 735.97515869 762.3225708 C735.64515869 762.9825708 735.31515869 763.6425708 734.97515869 764.3225708 C732.07256058 765.6974857 730.21377164 766.3225708 726.97515869 766.3225708 C726.64515869 766.9825708 726.31515869 767.6425708 725.97515869 768.3225708 C724.00636546 769.38269023 721.99597793 770.36534063 719.97515869 771.3225708 C717.49500327 772.59279627 715.01553075 773.86430248 712.53765869 775.13897705 C709.97515869 776.3225708 709.97515869 776.3225708 707.07281494 777.27178955 C703.66215553 778.42874716 700.61455007 779.92524777 697.41265869 781.5725708 C690.67552843 784.99718971 683.85840713 788.20066031 676.97515869 791.3225708 C675.4397753 792.03953249 673.90463397 792.7570127 672.36968994 793.47491455 C670.75926681 794.2163518 669.14859106 794.95724061 667.53765869 795.6975708 C666.78001221 796.05584961 666.02236572 796.41412842 665.24176025 796.78326416 C661.01475908 798.70492681 657.70223766 800.02906358 652.97515869 799.3225708 C649.90875244 797.9944458 649.90875244 797.9944458 646.41265869 796.0725708 C639.111465 792.22262987 631.62366867 789.04148014 623.97515869 785.9475708 C612.1027557 781.12624027 600.39566189 775.98790167 588.72515869 770.6975708 C575.01284772 764.48366658 561.27030359 758.35046758 547.47515869 752.3225708 C533.70654597 746.30404811 519.98111714 740.19764949 506.28765869 734.0100708 C491.07859747 727.13984907 475.81326938 720.4210033 460.48052979 713.83184814 C455.88820041 711.85456856 451.30316626 709.86068841 446.71783447 707.86724854 C408.16831288 691.11798174 369.48000561 674.68822206 330.8057251 658.22979736 C320.65121291 653.9081808 310.49822311 649.58299004 300.34512329 645.25805664 C294.7218646 642.86274714 289.09850661 640.46767081 283.47515869 638.0725708 C281.22515822 637.11423858 278.97515822 636.15590525 276.72515869 635.1975708 C275.05453369 634.4860083 275.05453369 634.4860083 273.35015869 633.7600708 C209.22515869 606.4475708 209.22515869 606.4475708 205.85032654 605.01013184 C203.5997771 604.05157145 201.34921761 603.09303468 199.09864807 602.13452148 C193.48197189 599.74235523 187.86546965 597.34978224 182.24932861 594.95635986 C172.0252681 590.5996658 161.79985513 586.24627362 151.56816101 581.90753174 C129.38036905 572.49873341 107.20559634 563.06697775 85.16265869 553.3225708 C83.84838898 552.74166183 83.84838898 552.74166183 82.50756836 552.14901733 C73.51471465 548.16877504 64.54490195 544.14315024 55.61578369 540.02178955 C28.65860087 527.5872091 3.74370705 516.23033567 -26.02484131 526.3225708 C-37.23499981 530.49265164 -48.13057941 535.40504113 -59.0413208 540.2923584 C-64.01475 542.51975041 -68.99270613 544.73698944 -73.97015381 546.9553833 C-74.98303467 547.40706879 -75.99591553 547.85875427 -77.03948975 548.3241272 C-86.93553048 552.73457336 -96.8517813 557.09831881 -106.77484131 561.4475708 C-107.6073642 561.81252655 -108.43988708 562.1774823 -109.29763794 562.55349731 C-112.66179746 564.02813555 -116.0260533 565.50255342 -119.39054871 566.97642517 C-125.47768224 569.64324469 -131.56234451 572.31564856 -137.64593506 574.99053955 C-156.58962366 583.31881116 -175.54810839 591.61000619 -194.54437256 599.81768799 C-197.94521439 601.28814177 -201.3446785 602.76172672 -204.74359131 604.2366333 C-238.69854621 618.97048165 -272.68958145 633.62101077 -306.71234131 648.1975708 C-307.87285004 648.69478638 -309.03335876 649.19200195 -310.22903442 649.70428467 C-322.02609551 654.7582588 -333.82440725 659.8093046 -345.62409973 664.85713196 C-376.60197029 678.11030271 -407.53754921 691.45715862 -438.4364624 704.89337158 C-445.77570498 708.08438041 -453.11857656 711.26698619 -460.46234131 714.4475708 C-462.18831543 715.19526733 -462.18831543 715.19526733 -463.94915771 715.95806885 C-466.18123112 716.92500008 -468.41332697 717.8918795 -470.64544678 718.85870361 C-474.24209112 720.41667786 -477.83857587 721.97502017 -481.43499756 723.5335083 C-482.05838013 723.80364746 -482.6817627 724.07378662 -483.32403564 724.35211182 C-485.22430714 725.17559136 -487.12457495 725.99907941 -489.02484131 726.8225708 C-496.25510848 729.95584878 -503.48541568 733.08903365 -510.71624756 736.2210083 C-522.61262809 741.37430677 -534.50737387 746.53134158 -546.39984131 751.69366455 C-594.04624869 772.3761579 -594.04624869 772.3761579 -616.74072266 782.1763916 C-621.05417688 784.03909922 -625.36718663 785.90282828 -629.67962646 787.7678833 C-676.93168969 808.20276053 -724.28780365 828.39083978 -771.73864746 848.35980225 C-773.90698678 849.27293956 -776.07470045 850.18754153 -778.24212646 851.10284424 C-781.73049803 852.57597559 -785.22110854 854.04373143 -788.71234131 855.5100708 C-789.66866455 855.91459473 -790.62498779 856.31911865 -791.61029053 856.73590088 C-792.45220947 857.08805664 -793.29412842 857.4402124 -794.16156006 857.80303955 C-794.8701416 858.10105469 -795.57872314 858.39906982 -796.30877686 858.70611572 C-798.02484131 859.3225708 -798.02484131 859.3225708 -800.02484131 859.3225708 C-800.02484131 859.9825708 -800.02484131 860.6425708 -800.02484131 861.3225708 C-798.81089943 861.68530846 -798.81089943 861.68530846 -797.57243347 862.05537415 C-793.28228822 863.58781008 -789.32446404 865.54500105 -785.2633667 867.59771729 C-784.40210678 868.02900436 -783.54084686 868.46029144 -782.65348816 868.90464783 C-779.80796738 870.33065043 -776.96528437 871.76222058 -774.12249756 873.19366455 C-772.12371568 874.19619625 -770.12472421 875.19831018 -768.12553406 876.20002747 C-762.85057962 878.84415721 -757.5778616 881.49271354 -752.30578613 884.14257812 C-743.9307788 888.35160259 -735.55319979 892.55549257 -727.17413139 896.75642586 C-724.28295293 898.20701738 -721.39320843 899.66043314 -718.50361633 901.11418152 C-706.24218111 907.27251651 -693.90142592 913.24775107 -681.50878143 919.13722229 C-677.8447049 920.88573773 -674.19319577 922.65967757 -670.54437256 924.4397583 C-669.53223348 924.93320661 -669.53223348 924.93320661 -668.49964714 925.43662357 C-667.26277157 926.0397505 -666.02593215 926.64295158 -664.78912354 927.24621582 C-652.69881983 933.13937874 -640.55851468 938.90029603 -628.34246826 944.52911377 C-620.02505023 948.36992759 -611.76562422 952.32108305 -603.52484131 956.3225708 C-589.43595818 963.15858861 -575.24835341 969.77173119 -561.02484131 976.3225708 C-554.64947174 979.25926937 -548.27435624 982.1965175 -541.89984131 985.1350708 C-540.65879135 985.7070369 -540.65879135 985.7070369 -539.39266968 986.29055786 C-526.26093686 992.34446541 -513.1639138 998.46889648 -500.08734131 1004.64093018 C-491.54079153 1008.67400742 -482.97816112 1012.66986367 -474.39984131 1016.6350708 C-458.78253483 1023.86225876 -443.25157753 1031.27015993 -427.71353149 1038.66572571 C-418.82289932 1042.89650427 -409.92422445 1047.11023938 -401.02484131 1051.3225708 C-389.63152405 1056.71592105 -378.2425685 1062.11831942 -366.8583374 1067.53082275 C-337.30341595 1081.58226118 -307.68834498 1095.501985 -278.02484131 1109.3225708 C-268.67575104 1113.67842524 -259.32871716 1118.03863345 -249.98522949 1122.40649414 C-247.99954193 1123.33439304 -246.01344442 1124.26140995 -244.02728271 1125.18829346 C-144.88183251 1171.47421687 -144.88183251 1171.47421687 -116.02484131 1193.3225708 C-114.94291707 1194.12870402 -113.86088499 1194.93469253 -112.77874756 1195.74053955 C-106.41708665 1200.52084607 -100.33309546 1205.5670079 -94.33001709 1210.78863525 C-90.28523993 1214.29153107 -86.13679937 1217.61841294 -81.89984131 1220.8850708 C-75.26922192 1226.0255704 -69.0833157 1231.52331471 -63.02484131 1237.3225708 C-62.52742432 1237.79275635 -62.03000732 1238.26294189 -61.51751709 1238.74737549 C-53.5113932 1246.34457754 -46.62406571 1254.48736277 -40.02484131 1263.3225708 C-39.56722412 1263.9300415 -39.10960693 1264.53751221 -38.63812256 1265.16339111 C-23.19463078 1285.70063963 -7.03874228 1307.32207793 -3.02484131 1333.3225708 C-1.04484131 1333.6525708 0.93515869 1333.9825708 2.97515869 1334.3225708 C3.10148682 1333.15854736 3.22781494 1331.99452393 3.35797119 1330.79522705 C6.93724996 1302.56351092 24.43743398 1275.20374373 42.97515869 1254.3225708 C43.69961182 1253.50143799 44.42406494 1252.68030518 45.17047119 1251.83428955 C46.65622868 1250.16993055 48.15095516 1248.51353164 49.65484619 1246.86553955 C51.27683521 1245.08790512 52.88516325 1243.29775259 54.48297119 1241.49835205 C58.73482698 1236.73289289 62.98809603 1232.21461447 67.88140869 1228.10772705 C70.29985227 1226.04573317 72.59497359 1223.87214583 74.91265869 1221.6975708 C82.20427759 1215.0587828 90.06277544 1209.1957505 97.97515869 1203.3225708 C98.70686279 1202.77665283 99.43856689 1202.23073486 100.19244385 1201.66827393 C138.10380861 1173.47153922 181.36074169 1153.35005689 223.97515869 1133.3225708 C225.19869739 1132.74621912 226.42216319 1132.16971266 227.64556885 1131.59307861 C234.74957065 1128.24483821 241.85576324 1124.90128356 248.96343994 1121.56085205 C257.93061103 1117.34602434 266.89120316 1113.11732817 275.85015869 1108.8850708 C276.96745865 1108.35729034 276.96745865 1108.35729034 278.10733032 1107.81884766 C281.88592804 1106.03392812 285.66445243 1104.24885343 289.44293213 1102.46368408 C293.95603867 1100.33150298 298.46945729 1098.19998316 302.98297119 1096.06866455 C303.72534027 1095.71810501 304.46770935 1095.36754547 305.23257446 1095.00636292 C308.97400838 1093.23962403 312.71550799 1091.47302441 316.45709229 1089.706604 C323.28259038 1086.48408426 330.10760078 1083.26054905 336.93045044 1080.03242493 C352.41590655 1072.70580107 367.90979616 1065.40132729 383.45709229 1058.206604 C391.95507793 1054.27067555 400.43158151 1050.29068672 408.9022522 1046.29638672 C465.52042803 1019.60083938 465.52042803 1019.60083938 492.97515869 1008.0100708 C493.63266113 1007.72607422 494.29016357 1007.44207764 494.96759033 1007.1494751 C498.48799775 1005.69361781 501.19482944 1005.21225771 504.97515869 1005.3225708 C504.99802343 1045.81686823 505.01565609 1086.31116483 505.02622402 1126.80546742 C505.0274748 1131.58094395 505.02876912 1136.35642046 505.03009033 1141.13189697 C505.03035264 1142.08265016 505.03061495 1143.03340335 505.03088521 1144.01296724 C505.03524226 1159.42849271 505.04312999 1174.84401448 505.05231149 1190.25953775 C505.06164707 1206.06502579 505.0672141 1221.87051188 505.06924719 1237.67600256 C505.07062261 1247.43700779 505.07497426 1257.19800253 505.08307516 1266.95900453 C505.08834144 1273.64302521 505.08996326 1280.32704043 505.08866007 1287.01106303 C505.0880165 1290.87337733 505.08903627 1294.73567324 505.09436417 1298.59798431 C505.10008482 1302.77527061 505.09815995 1306.95251723 505.09541321 1311.12980652 C505.09832605 1312.36421524 505.10123889 1313.59862395 505.10424 1314.87043899 C505.10224895 1315.98014983 505.1002579 1317.08986068 505.09820652 1318.23319912 C505.09858624 1319.19882792 505.09896596 1320.16445672 505.09935719 1321.159347 C504.97515869 1323.3225708 504.97515869 1323.3225708 503.97515869 1324.3225708 C501.24128981 1324.76499993 498.51826456 1325.15039722 495.77227783 1325.50250244 C494.90991013 1325.61659454 494.04754242 1325.73068665 493.15904236 1325.84823608 C491.27299047 1326.09759195 489.38670771 1326.34520609 487.50023079 1326.59132576 C484.47817821 1326.98693398 481.45719999 1327.3899269 478.43644714 1327.79533386 C469.84128171 1328.94869884 461.2457504 1330.09874465 452.64630127 1331.2197876 C420.00579366 1335.48327186 388.20616542 1340.78723121 356.85015869 1351.0725708 C355.26211322 1351.58447687 353.67405959 1352.09635763 352.08599854 1352.60821533 C308.7599855 1366.68397842 266.62045167 1384.85885032 226.97515869 1407.3225708 C226.13050049 1407.79678467 225.28584229 1408.27099854 224.41558838 1408.75958252 C201.29326225 1421.8041987 178.4849012 1436.58100167 157.61968994 1453.02667236 C155.88280955 1454.39534236 154.1331458 1455.74641729 152.38140869 1457.0960083 C141.73936315 1465.33097585 131.44795912 1473.96498474 121.50274658 1483.03033447 C119.94379262 1484.44412939 118.37734166 1485.84976843 116.79888916 1487.24176025 C109.96974292 1493.28100632 103.50157714 1499.64272454 97.06964111 1506.09771729 C95.28341199 1507.8893303 93.49186522 1509.67550135 91.69976807 1511.46124268 C85.91132535 1517.24602271 80.2539477 1523.0623479 74.97515869 1529.3225708 C74.02649459 1530.4062303 73.07601887 1531.48830696 72.12359619 1532.56866455 C64.94265106 1540.80126076 58.21346675 1549.31874345 51.66802979 1558.06329346 C49.94109225 1560.3680353 48.20222535 1562.66347816 46.46343994 1564.95928955 C38.36175608 1575.72773125 30.95464758 1586.79744087 23.97515869 1598.3225708 C23.53188232 1599.05218018 23.08860596 1599.78178955 22.63189697 1600.5335083 C16.34673839 1610.92359516 10.56093406 1621.54229418 4.97515869 1632.3225708 C0.95078423 1633.49315881 -2.02822307 1633.68702136 -6.02484131 1632.3225708 C-9.69605883 1627.9103217 -12.14263601 1623.00509095 -14.71380615 1617.89337158 C-16.93205669 1613.54361774 -19.35377205 1609.31182183 -21.77484131 1605.0725708 C-22.27306396 1604.19471924 -22.77128662 1603.31686768 -23.28460693 1602.41241455 C-35.73343778 1580.701906 -50.6227899 1560.29548185 -66.59368896 1541.05792236 C-67.86122293 1539.52096715 -69.10683338 1537.96598914 -70.34906006 1536.4085083 C-75.79701429 1529.58094274 -81.68573961 1523.23576492 -87.67718506 1516.88897705 C-90.36711627 1514.03688421 -92.99233297 1511.13666864 -95.58734131 1508.1975708 C-102.87564088 1500.05262408 -110.61012962 1492.19503618 -118.94671631 1485.1194458 C-121.10561916 1483.25272529 -123.20019953 1481.32381438 -125.29144287 1479.38189697 C-131.34021694 1473.76968161 -137.57963859 1468.47873297 -144.02484131 1463.3225708 C-145.14389945 1462.41181061 -146.26236019 1461.50031604 -147.38031006 1460.5881958 C-219.7253894 1401.79856975 -308.42574415 1358.0177521 -495.01507568 1325.22198486 C-496.17587646 1325.11595947 -497.33667725 1325.00993408 -498.53265381 1324.9006958 C-499.54988525 1324.81207275 -500.5671167 1324.72344971 -501.61517334 1324.63214111 C-504.02484131 1324.3225708 -504.02484131 1324.3225708 -506.02484131 1323.3225708 C-506.35484131 1236.8625708 -506.68484131 1150.4025708 -507.02484131 1061.3225708 C-520.55484131 1056.7025708 -534.08484131 1052.0825708 -548.02484131 1047.3225708 C-554.74018598 1044.39709712 -561.20313643 1041.51853969 -567.64984131 1038.1350708 C-569.1776629 1037.36050529 -570.70692098 1036.58876774 -572.23748779 1035.81964111 C-575.19333341 1034.33171231 -578.14315723 1032.83297075 -581.08782959 1031.32305908 C-586.36726479 1028.62596843 -591.72300225 1026.09547906 -597.08734131 1023.5725708 C-606.06136866 1019.31314147 -614.94604475 1014.88163875 -623.82052612 1010.41973877 C-632.6684852 1005.97271098 -641.55421882 1001.61995973 -650.51312256 997.4006958 C-656.85369858 994.40297401 -663.12962825 991.28337237 -669.39984131 988.14190674 C-670.32667725 987.6779953 -671.25351318 987.21408386 -672.20843506 986.7361145 C-674.48077062 985.5986656 -676.75289996 984.46080685 -679.02484131 983.3225708 C-679.09575432 998.64215294 -679.14822355 1013.9617224 -679.18027782 1029.2814312 C-679.19557425 1036.39887974 -679.2164108 1043.51622371 -679.25115967 1050.63360596 C-679.56131504 1095.06609406 -679.56131504 1095.06609406 -676.02484131 1139.3225708 C-675.80217887 1141.24430404 -675.58066343 1143.16617069 -675.36053467 1145.0881958 C-674.77587149 1150.03093617 -674.10326124 1154.95800251 -673.39984131 1159.8850708 C-673.27711853 1160.75970978 -673.15439575 1161.63434875 -673.0279541 1162.53549194 C-672.20632107 1168.38693181 -671.3600468 1174.23449709 -670.50067139 1180.08050537 C-669.9966696 1183.51451858 -669.49814479 1186.94930651 -668.99945068 1190.38409424 C-663.35703665 1230.37120646 -663.35703665 1230.37120646 -653.02484131 1269.3225708 C-652.58779523 1270.66431146 -652.15198359 1272.00645466 -651.71722412 1273.34893799 C-630.61690424 1338.30549986 -601.97311083 1401.81598714 -562.24993896 1457.60040283 C-561.05437589 1459.28105287 -559.87233621 1460.97048353 -558.69281006 1462.66241455 C-548.42112601 1477.31268508 -537.55638327 1491.64072303 -526.02484131 1505.3225708 C-525.13542917 1506.38629829 -524.2461119 1507.4501051 -523.35687256 1508.51397705 C-518.37131772 1514.45912369 -513.3003586 1520.30807847 -508.07952881 1526.0491333 C-506.15547993 1528.17802389 -504.27338318 1530.33676222 -502.39984131 1532.5100708 C-499.64468239 1535.67786873 -496.73715508 1538.63152569 -493.74359131 1541.5725708 C-492.0825761 1543.26378629 -490.55422727 1545.01227721 -489.02484131 1546.8225708 C-481.46864568 1555.57816256 -473.07399065 1563.94167038 -464.23187256 1571.39678955 C-461.65482781 1573.64543214 -459.17576638 1575.98532395 -456.68865967 1578.33258057 C-450.89262697 1583.80211655 -445.04730244 1589.08700447 -438.81390381 1594.06085205 C-436.18749447 1596.19067138 -433.6364336 1598.38363648 -431.09002686 1600.60723877 C-423.68237311 1607.06455833 -415.96995706 1612.99630691 -408.05706787 1618.81817627 C-406.03242256 1620.31695864 -404.02268279 1621.83364558 -402.01702881 1623.35772705 C-392.87396937 1630.300591 -383.571525 1636.94582841 -374.02484131 1643.3225708 C-373.28314697 1643.81837646 -372.54145264 1644.31418213 -371.77728271 1644.82501221 C-352.10678142 1657.91528704 -331.84872105 1670.15402424 -311.02484131 1681.3225708 C-309.69936279 1682.0355835 -309.69936279 1682.0355835 -308.34710693 1682.76300049 C-238.3978216 1720.24098991 -159.67296251 1742.5945879 77.97515869 1757.3225708 C79.19251709 1757.20429932 80.40987549 1757.08602783 81.66412354 1756.96417236 C116.0956411 1753.44993099 150.45798934 1746.89086973 183.97515869 1738.3225708 C185.68856445 1737.890896 185.68856445 1737.890896 187.43658447 1737.45050049 C218.37616443 1729.57560249 248.68088164 1718.99453473 277.97515869 1706.3225708 C278.85687744 1705.94181396 279.73859619 1705.56105713 280.64703369 1705.16876221 C286.46344367 1702.63857926 292.22804844 1700.00599596 297.97515869 1697.3225708 C299.39248291 1696.66418213 299.39248291 1696.66418213 300.83843994 1695.99249268 C343.64707495 1676.03178673 384.17403367 1651.64565673 421.97515869 1623.3225708 C422.54895264 1622.89363525 423.12274658 1622.46469971 423.71392822 1622.02276611 C440.64347034 1609.31200852 456.94340461 1595.69951191 472.61187744 1581.46710205 C474.23153683 1579.99736154 475.85960684 1578.53685175 477.49468994 1577.08428955 C482.35777361 1572.75905845 487.04634487 1568.33213763 491.57672119 1563.6585083 C493.59046663 1561.69723831 495.64267967 1559.87579401 497.77593994 1558.0491333 C501.98903241 1554.39183968 505.77084177 1550.43182563 509.53765869 1546.3225708 C513.7410519 1541.76562116 517.97166437 1537.26650424 522.394104 1532.92047119 C525.4169666 1529.86540082 528.18162356 1526.58609577 530.97515869 1523.3225708 C531.88255233 1522.26774698 532.79011777 1521.21307094 533.69781494 1520.1585083 C536.28589136 1517.14906772 538.86473266 1514.13183415 541.44195557 1511.11309814 C542.87949146 1509.43429428 544.3246219 1507.76239055 545.77203369 1506.09210205 C551.86187219 1499.02911678 557.52857387 1491.71866073 563.07281494 1484.2210083 C564.86169179 1481.80398973 566.67263256 1479.41096056 568.53375244 1477.0491333 C590.21789123 1449.50160339 607.40136176 1418.25991985 624.18490601 1387.57885742 C629.47550839 1377.91556794 634.97478198 1368.41298658 640.89117432 1359.11651611 C642.00966067 1357.31634237 642.00966067 1357.31634237 642.98101807 1355.33331299 C645.4294007 1350.51718307 645.4294007 1350.51718307 648.28106689 1349.50030518 C651.54503751 1349.28497481 653.16579749 1349.96406656 656.09625244 1351.3928833 C657.09696777 1351.86983643 658.09768311 1352.34678955 659.12872314 1352.8381958 C660.21242188 1353.36928955 661.29612061 1353.9003833 662.41265869 1354.4475708 C664.78883384 1355.57834018 667.16619367 1356.7061979 669.54547119 1357.8303833 C670.16060074 1358.12245667 670.77573029 1358.41453003 671.40950012 1358.7154541 C677.80201962 1361.74014544 684.28682064 1364.53930461 690.78765869 1367.3225708 C703.45715563 1372.76503569 716.06647029 1378.33769908 728.66265869 1383.9475708 C732.54933773 1385.67812875 736.43605601 1387.40859854 740.32281494 1389.13897705 C741.29311142 1389.57098923 742.2634079 1390.0030014 743.2631073 1390.44810486 C753.36742794 1394.94527838 763.48264425 1399.41767514 773.60015869 1403.8850708 C774.48231049 1404.27462952 775.36446228 1404.66418823 776.27334595 1405.06555176 C780.7262295 1407.03188938 785.17926354 1408.99788588 789.63238525 1410.96368408 C797.68438956 1414.51839969 805.73495635 1418.07636869 813.78564453 1421.63406372 C818.26542491 1423.61369661 822.74529636 1425.59312337 827.22515869 1427.5725708 C829.0168258 1428.36423648 830.80849246 1429.15590314 832.60015869 1429.9475708 C833.48703369 1430.3394458 834.37390869 1430.7313208 835.28765869 1431.1350708 C852.30849202 1438.65590413 869.32932536 1446.17673747 886.35015869 1453.6975708 C887.23701355 1454.08943573 888.12386841 1454.48130066 889.03759766 1454.88504028 C890.82947127 1455.67680076 892.62134139 1456.46856915 894.41320801 1457.26034546 C898.88917972 1459.23814177 903.36521191 1461.21580096 907.84136963 1463.19317627 C915.94186385 1466.77178961 924.04191004 1470.35139963 932.13969421 1473.93614197 C935.768725 1475.5425828 939.39803913 1477.14838268 943.0274353 1478.7539978 C944.81534587 1479.54503583 946.60316841 1480.33627286 948.39089966 1481.12771606 C958.3369139 1485.53000893 968.29404928 1489.90451892 978.27593994 1494.22491455 C979.1878006 1494.62009277 980.09966125 1495.015271 981.03915405 1495.42242432 C985.39706527 1497.31076928 989.75690717 1499.1943612 994.1206665 1501.06915283 C995.66729747 1501.73807253 997.21385144 1502.40717028 998.76031494 1503.07647705 C999.81947868 1503.52820534 999.81947868 1503.52820534 1000.90003967 1503.98905945 C1003.68899544 1505.20085297 1005.80427203 1506.15168414 1007.97515869 1508.3225708 C1007.61430042 1516.23840036 1004.62332623 1523.96124817 1001.91265869 1531.3225708 C1001.51272705 1532.41489014 1001.11279541 1533.50720947 1000.70074463 1534.63262939 C994.63180583 1550.90452529 986.72830312 1565.8089003 978.08843994 1580.8460083 C975.49805929 1585.36731514 973.04849303 1589.9411439 970.66265869 1594.5725708 C949.67527086 1634.8703284 922.96003537 1671.90708194 895.97515869 1708.3225708 C895.54219482 1708.90764404 895.10923096 1709.49271729 894.66314697 1710.09552002 C886.01891576 1721.76255868 876.99697997 1733.11463368 867.81207275 1744.35845947 C864.30716789 1748.65658511 860.87388015 1753.00277053 857.47515869 1757.3850708 C853.05791708 1763.06495995 848.41311875 1768.51615938 843.67047119 1773.92608643 C840.52344674 1777.51893934 837.46094212 1781.15557574 834.47515869 1784.8850708 C829.89734036 1790.54399752 824.94135402 1795.81541014 819.96343994 1801.1194458 C817.77055615 1803.45870172 815.62684496 1805.82709439 813.53765869 1808.2600708 C802.39469419 1821.12831596 790.31229717 1833.1446745 778.26861572 1845.15948486 C775.57977911 1847.84290936 772.89639913 1850.53170872 770.21343994 1853.2210083 C768.48068794 1854.95310023 766.74762616 1856.68488234 765.01422119 1858.4163208 C764.22447906 1859.20808716 763.43473694 1859.99985352 762.62106323 1860.81561279 C758.43241513 1864.98677398 754.16596711 1869.00333119 749.68089294 1872.85494995 C747.2892004 1874.91277217 744.98004775 1877.05677904 742.66265869 1879.1975708 C738.17367812 1883.29137289 733.56272394 1887.17726748 728.83453369 1890.99053955 C726.3373633 1893.02716622 723.8833982 1895.10544207 721.44073486 1897.20684814 C714.63190463 1903.05314075 707.57808223 1908.5235863 700.42437744 1913.9397583 C696.70031982 1916.76084042 693.01357553 1919.62643949 689.33648682 1922.50836182 C650.57389619 1952.87098056 609.28276051 1979.86963729 566.77886963 2004.68243408 C563.88375743 2006.37603942 560.99548758 2008.08089522 558.10797119 2009.78741455 C544.23638761 2017.96475327 530.20638656 2025.78915736 515.97515869 2033.3225708 C514.86575928 2033.91151123 513.75635986 2034.50045166 512.61334229 2035.10723877 C471.18864581 2057.02904592 428.28085829 2076.16964026 384.01074219 2091.60888672 C381.84082439 2092.36966897 379.67459627 2093.14032807 377.5088501 2093.91290283 C291.6546966 2124.5007573 201.77338652 2143.97173556 101.22515869 2152.5725708 C99.70484039 2152.69733292 99.70484039 2152.69733292 98.15380859 2152.82461548 C95.20403354 2153.06373364 92.25382752 2153.29627257 89.30328369 2153.5256958 C88.05350235 2153.62534386 88.05350235 2153.62534386 86.7784729 2153.727005 C70.24835762 2154.97517337 53.71614769 2155.48605058 37.14312744 2155.5256958 C35.30833921 2155.53272184 33.47355121 2155.53980862 31.63876343 2155.54695129 C25.81339153 2155.56632608 19.98805957 2155.57138525 14.16265869 2155.5725708 C13.1690823 2155.57301266 12.17550591 2155.57345451 11.15182114 2155.57390976 C-19.34430872 2155.58101815 -49.64351261 2155.21878965 -80.02484131 2152.3225708 C-81.91007523 2152.14901377 -83.79532965 2151.97567919 -85.68060303 2151.80255127 C-170.63344617 2143.8855837 -254.01419218 2125.9493706 -335.02484131 2099.3225708 C-335.67267578 2099.11027832 -336.32051025 2098.89798584 -336.98797607 2098.67926025 C-381.14573902 2084.18954597 -424.04679953 2066.21364535 -466.02484131 2046.3225708 C-467.1626001 2045.78454834 -468.30035889 2045.24652588 -469.47259521 2044.69219971 C-495.8367471 2032.18950075 -521.78346288 2018.97987249 -547.02484131 2004.3225708 C-547.93781982 2003.79453857 -548.85079834 2003.26650635 -549.79144287 2002.72247314 C-569.37828796 1991.3698301 -588.49789043 1979.33532587 -607.02484131 1966.3225708 C-608.38935033 1965.37064136 -609.75393535 1964.41882084 -611.11859131 1963.46710205 C-633.14934151 1948.05531823 -654.48828227 1931.7929563 -675.28070068 1914.75079346 C-676.85393055 1913.46252432 -678.43132379 1912.17934355 -680.00921631 1910.89678955 C-685.45583757 1906.46550664 -690.83444027 1901.96093305 -696.18304443 1897.41241455 C-699.657644 1894.46251671 -703.16959825 1891.5657436 -706.71234131 1888.6975708 C-711.10210778 1885.12731211 -715.30311824 1881.39374575 -719.48187256 1877.5803833 C-722.16261355 1875.20024768 -724.91988265 1872.94525239 -727.71234131 1870.6975708 C-731.49974191 1867.63360627 -734.99465603 1864.47157363 -738.38031006 1860.97491455 C-740.03325734 1859.31411479 -741.74735768 1857.78634689 -743.52484131 1856.2600708 C-755.78709816 1845.66218594 -767.2872034 1834.2223869 -778.7255249 1822.7522583 C-781.04680446 1820.42555635 -783.37346794 1818.10433252 -785.70062256 1815.7835083 C-787.20484998 1814.27862092 -788.70876762 1812.77342383 -790.21234131 1811.2678833 C-790.89473877 1810.58751007 -791.57713623 1809.90713684 -792.2802124 1809.20614624 C-796.17580171 1805.29171702 -799.89532748 1801.27467286 -803.49740601 1797.08811951 C-805.73520065 1794.50147284 -808.06859168 1792.01283879 -810.39984131 1789.5100708 C-814.69039001 1784.86565483 -818.75356545 1780.08498281 -822.72015381 1775.1585083 C-825.2327871 1772.06669174 -827.81138771 1769.03826169 -830.39984131 1766.0100708 C-834.64986128 1761.02040239 -838.74264931 1755.92788579 -842.76531982 1750.75372314 C-845.69443196 1746.99279879 -848.68180459 1743.28819978 -851.71307373 1739.60919189 C-857.0175693 1733.16215278 -862.13596266 1726.60770801 -867.08734131 1719.8850708 C-867.60401367 1719.1835791 -868.12068604 1718.4820874 -868.65301514 1717.75933838 C-879.11302468 1703.43948761 -889.14214171 1688.83656519 -898.96234131 1674.0725708 C-899.81632507 1672.78997879 -899.81632507 1672.78997879 -900.68756104 1671.48147583 C-909.05127765 1658.91053231 -917.31786137 1646.3103067 -925.02484131 1633.3225708 C-925.57994385 1632.39057861 -926.13504639 1631.45858643 -926.70697021 1630.49835205 C-939.56873771 1608.84387694 -951.52751443 1586.72780464 -963.02484131 1564.3225708 C-963.54691162 1563.30711182 -964.06898193 1562.29165283 -964.60687256 1561.24542236 C-985.5659312 1520.3344618 -1003.01918651 1477.75058905 -1018.02484131 1434.3225708 C-1018.40739075 1433.21715942 -1018.40739075 1433.21715942 -1018.79766846 1432.0894165 C-1045.15110799 1355.81299985 -1062.95853512 1277.62771782 -1075.39984131 1197.9475708 C-1075.56946381 1196.87122375 -1075.7390863 1195.79487671 -1075.91384888 1194.68591309 C-1080.42389283 1165.91916116 -1082.18116681 1137.29591685 -1082.19281006 1108.19366455 C-1082.19604548 1106.22540771 -1082.19941097 1104.25715107 -1082.20289612 1102.28889465 C-1082.20882642 1098.1838221 -1082.21074288 1094.07877037 -1082.21014404 1089.97369385 C-1082.21006365 1085.87241116 -1082.21687789 1081.77124224 -1082.23065186 1077.66998291 C-1082.30391536 1055.47412651 -1082.11915897 1033.32332502 -1081.12640381 1011.14678955 C-1081.08665625 1010.24453581 -1081.04690868 1009.34228207 -1081.00595665 1008.4126873 C-1077.043792 920.70807978 -1059.59261838 832.62111134 -988.02484131 636.3225708 C-987.70406616 635.60689941 -987.38329102 634.89122803 -987.05279541 634.15386963 C-972.90901792 602.60758832 -958.32722015 571.01350508 -940.73284912 541.21710205 C-939.52922111 539.17733451 -938.3340282 537.13257793 -937.1449585 535.08428955 C-927.84544858 519.0697264 -917.98420989 503.48176299 -907.71234131 488.0725708 C-906.90888779 486.8652832 -906.90888779 486.8652832 -906.08920288 485.63360596 C-880.85791503 447.79417816 -853.00144995 411.29211398 -822.24749756 377.7600708 C-820.35062367 375.67984355 -818.49091188 373.57700182 -816.64984131 371.4475708 C-810.36997983 364.23303227 -803.81139142 357.25582581 -797.23187256 350.3147583 C-790.96720583 343.69768441 -784.87481292 337.07085935 -779.17718506 329.95147705 C-768.68004873 317.1301109 -756.80835235 304.87671817 -743.81390381 294.6038208 C-739.98920081 291.4754923 -736.39238356 288.12581464 -732.79022217 284.74591064 C-729.94512453 282.07956974 -727.06420044 279.47164299 -724.11859131 276.9163208 C-720.04238097 273.36938112 -716.12591438 269.67188645 -712.21234131 265.9475708 C-706.81399296 260.84488507 -701.34240155 255.99208896 -695.53265381 251.3616333 C-692.94881097 249.26075174 -690.48490611 247.06670515 -688.02484131 244.8225708 C-679.08040046 236.69381796 -669.52299569 229.29881847 -659.99945068 221.86749268 C-657.9042493 220.22822037 -655.81597211 218.58037143 -653.72796631 216.9319458 C-644.38009255 209.57538939 -634.86647563 202.54928848 -625.09417725 195.76837158 C-623.08290618 194.36313948 -621.08685035 192.93897174 -619.09515381 191.50616455 C-592.15263227 172.16493983 -563.81223746 154.76057847 -535.02484131 138.3225708 C-533.9748999 137.72138428 -532.9249585 137.12019775 -531.84320068 136.50079346 C-453.76716337 92.01533579 -369.09127961 57.91263749 -275.02484131 33.3225708 C-274.26183716 33.12445801 -273.49883301 32.92634521 -272.71270752 32.722229 C-209.15461172 16.23804613 -144.08276195 5.82082207 -78.54827881 1.70147705 C-77.51748262 1.63667459 -76.48668644 1.57187214 -75.42465401 1.50510597 C-50.28737572 -0.03112996 -25.17545021 -0.09711172 0 0 Z M5.3682251 32.37677002 C-84.89648997 33.91085586 -175.94570524 45.42085957 -432.02484131 129.3225708 C-433.30246441 129.91023628 -434.58013471 130.49779918 -435.85784912 131.08526611 C-457.98593019 141.26973496 -479.78410067 151.88804106 -501.09613037 163.70001221 C-503.09385615 164.80678826 -505.09328105 165.91050161 -507.09417725 167.01153564 C-521.67866538 175.03821772 -535.96039411 183.41804704 -550.02484131 192.3225708 C-551.90230403 193.5024834 -553.77991121 194.68216616 -555.65765381 195.8616333 C-566.62402171 202.77181846 -577.41834578 209.87289766 -588.02484131 217.3225708 C-589.38935033 218.27450024 -590.75393535 219.22632076 -592.11859131 220.17803955 C-606.75878776 230.42055867 -621.17402224 240.98402492 -635.27288818 251.96075439 C-637.26481992 253.50910936 -639.26197715 255.05059979 -641.25921631 256.59210205 C-650.70933185 263.89816788 -660.04703299 271.32648125 -669.28509521 278.89874268 C-670.84432458 280.17483384 -672.4088523 281.44444462 -673.97406006 282.7131958 C-680.21557223 287.77929911 -686.33513344 292.97662739 -692.42327881 298.22491455 C-694.77267107 300.25001199 -697.13159271 302.2628181 -699.50140381 304.26397705 C-706.34635177 310.05711913 -713.00696284 316.00363732 -719.52459717 322.16387939 C-722.86040959 325.3161165 -726.23722637 328.40900664 -729.66766357 331.45831299 C-734.77038244 336.04591704 -739.66027689 340.81295565 -744.50531006 345.67022705 C-745.36240067 346.52636093 -746.21949127 347.38249481 -747.10255432 348.26457214 C-748.8977834 350.05912615 -750.69177216 351.85492176 -752.48455811 353.6519165 C-755.21235533 356.38508485 -757.94547025 359.11285375 -760.67913818 361.84014893 C-762.43401629 363.59568767 -764.18858425 365.35153651 -765.94281006 367.10772705 C-767.1539875 368.31586815 -767.1539875 368.31586815 -768.38963318 369.54841614 C-772.59875777 373.77481601 -776.65792669 378.07382453 -780.54203796 382.60165405 C-782.76098125 385.1769225 -785.08287658 387.64763869 -787.39984131 390.1350708 C-791.69359511 394.78295622 -795.76015971 399.56673428 -799.72796631 404.49835205 C-801.75002503 406.98465895 -803.81618393 409.42506311 -805.90643311 411.85406494 C-812.32178666 419.3247184 -818.29331227 427.09559748 -824.2255249 434.95245361 C-826.12039605 437.44843856 -828.03353327 439.92955392 -829.95062256 442.4085083 C-837.69945792 452.45243137 -845.11347143 462.63749155 -852.20062256 473.1585083 C-854.46588343 476.51918406 -856.80342606 479.81260167 -859.21234131 483.0725708 C-864.05790392 489.66172498 -868.5414102 496.48434057 -873.02484131 503.3225708 C-873.45667725 503.97999268 -873.88851318 504.63741455 -874.33343506 505.3147583 C-892.20243109 532.56895402 -908.69804975 560.56418057 -924.02484131 589.3225708 C-924.83717491 590.83437897 -925.64966269 592.34610432 -926.46234131 593.85772705 C-957.391937 651.69509324 -981.88953326 711.94648746 -1002.02484131 774.3225708 C-1002.24420349 774.99938904 -1002.46356567 775.67620728 -1002.6895752 776.37353516 C-1019.81488003 829.27985828 -1031.7000925 884.07206049 -1038.02484131 939.3225708 C-1038.10156067 939.99242004 -1038.17828003 940.66226929 -1038.25732422 941.35241699 C-1039.45763218 951.98994057 -1040.32521954 962.64116194 -1041.02484131 973.3225708 C-1041.07704834 974.10640137 -1041.12925537 974.89023193 -1041.18304443 975.69781494 C-1043.2052966 1006.6276625 -1043.20860813 1037.59127497 -1043.21234131 1068.5725708 C-1043.21286373 1069.54578655 -1043.21338615 1070.5190023 -1043.21392441 1071.52170944 C-1043.2306267 1105.36280266 -1043.10170029 1139.23801564 -1040.71234131 1173.0100708 C-1040.6482608 1173.94028046 -1040.5841803 1174.87049011 -1040.51815796 1175.82888794 C-1035.37512946 1249.84431926 -1019.09019453 1322.90434094 -996.02484131 1393.3225708 C-995.74469177 1394.17915283 -995.46454224 1395.03573486 -995.17590332 1395.91827393 C-983.2167653 1432.40569927 -969.80698599 1468.30962702 -954.02484131 1503.3225708 C-953.523396 1504.43970459 -953.02195068 1505.55683838 -952.50531006 1506.70782471 C-939.35897494 1535.86670174 -925.26099805 1564.75363406 -909.02484131 1592.3225708 C-907.76157234 1594.49299931 -906.49856429 1596.6635797 -905.23577881 1598.83428955 C-892.10231442 1621.30285383 -878.17411448 1643.15964285 -863.02484131 1664.3225708 C-861.93485289 1665.85762433 -860.84500769 1667.39277958 -859.75531006 1668.92803955 C-848.5753107 1684.61107078 -836.65557297 1699.6905583 -824.44866943 1714.58282471 C-823.17257827 1716.14205407 -821.90296749 1717.7065818 -820.63421631 1719.27178955 C-815.54997526 1725.53564768 -810.32604674 1731.66946282 -805.06390381 1737.7835083 C-802.19886801 1741.11422611 -799.35851552 1744.46516602 -796.52484131 1747.8225708 C-795.15923016 1749.43752452 -793.79310822 1751.05204416 -792.42669678 1752.6663208 C-791.47478781 1753.79097257 -790.52330501 1754.91598517 -789.57220459 1756.0413208 C-782.82425573 1764.01515816 -775.92183262 1771.8010583 -768.77947998 1779.42437744 C-767.49599561 1780.8128693 -766.22732916 1782.21509923 -764.96746826 1783.62506104 C-756.08538632 1793.4986476 -746.66243767 1802.83761091 -737.26287842 1812.21490479 C-734.81560654 1814.65644822 -732.37289826 1817.10250071 -729.93146992 1819.54988575 C-727.56529639 1821.92057098 -725.19528884 1824.28740803 -722.82562256 1826.65460205 C-721.52846062 1827.95480034 -721.52846062 1827.95480034 -720.20509338 1829.28126526 C-715.83657197 1833.63309104 -711.40881074 1837.84827343 -706.72515869 1841.86036682 C-704.15508581 1844.07052525 -701.69268723 1846.38720663 -699.21234131 1848.6975708 C-694.51108946 1853.04581742 -689.65234797 1857.13528299 -684.66156006 1861.1506958 C-682.10064103 1863.26013429 -679.65360676 1865.45144728 -677.21234131 1867.6975708 C-672.83783305 1871.67940667 -668.27955056 1875.33999163 -663.6083374 1878.96148682 C-659.79169563 1881.92302564 -656.03272414 1884.94216909 -652.30511475 1888.01495361 C-643.56550796 1895.21049091 -634.54712644 1901.96851409 -625.38323975 1908.61260986 C-623.12746102 1910.2481662 -620.87651546 1911.89016833 -618.62640381 1913.5335083 C-601.25096023 1926.1906118 -583.69737057 1938.56022252 -565.39935303 1949.85284424 C-562.9559924 1951.36518549 -560.52297622 1952.89316838 -558.09124756 1954.4241333 C-531.53363774 1971.08863177 -504.08889185 1986.17488935 -476.25921631 2000.59210205 C-473.23128417 2002.16371736 -470.21565259 2003.74996247 -467.22796631 2005.39678955 C-423.34629846 2029.5114849 -375.33064954 2047.22380193 -328.02484131 2063.3225708 C-327.04333099 2063.65810974 -327.04333099 2063.65810974 -326.04199219 2064.00042725 C-245.82578774 2091.40209208 -163.13857277 2109.94132357 -78.76696777 2118.05828857 C-76.99202445 2118.22935507 -75.21730656 2118.40278405 -73.44287109 2118.57904053 C-19.53555684 2123.92393977 36.88568051 2124.02971619 90.78466797 2118.54394531 C92.94067119 2118.32605616 95.09750379 2118.11992716 97.25494385 2117.91680908 C153.8771324 2112.5136503 210.6754661 2101.22212166 265.67993164 2086.91833496 C268.0847228 2086.29413162 270.49100603 2085.67592883 272.89752197 2085.05841064 C297.86441619 2078.63540839 322.49343391 2071.39510861 346.97515869 2063.3225708 C348.14597992 2062.9384201 348.14597992 2062.9384201 349.3404541 2062.54650879 C383.90486646 2051.20532508 417.71676935 2038.06471634 450.97515869 2023.3225708 C451.61499695 2023.03917847 452.25483521 2022.75578613 452.9140625 2022.46380615 C519.34763009 1993.00823219 581.1818024 1956.37197261 639.54156494 1913.12237549 C642.00487224 1911.30059565 644.47347586 1909.4862365 646.94390869 1907.6741333 C663.86863274 1895.25608177 680.29656256 1882.3774053 696.27935791 1868.76397705 C697.97750715 1867.32057464 699.68106062 1865.88375657 701.38531494 1864.4475708 C708.36127229 1858.54567221 715.12487816 1852.46215139 721.7756958 1846.19586182 C724.93823253 1843.21678141 728.11623738 1840.2795257 731.41265869 1837.4475708 C734.78440256 1834.5491819 737.8838949 1831.43065561 741.00250244 1828.26397705 C742.79011977 1826.50467842 744.62241995 1824.87747544 746.53765869 1823.2600708 C750.73471138 1819.66140978 754.58778511 1815.74797666 758.47515869 1811.8225708 C766.32538181 1803.89606712 766.32538181 1803.89606712 769.97515869 1800.8225708 C778.63374637 1793.49607354 786.80562809 1785.12987512 794.11578369 1776.4631958 C796.22760709 1774.03193693 798.42246564 1771.6911076 800.6272583 1769.34429932 C805.86178594 1763.77153381 810.89211182 1758.12587704 815.67437744 1752.15460205 C818.33424681 1748.8805693 821.087464 1745.69722145 823.85015869 1742.5100708 C828.8870621 1736.68009919 833.67707009 1730.68945522 838.40484619 1724.60772705 C840.65126887 1721.7219635 842.95609362 1718.89023708 845.28765869 1716.0725708 C856.39057335 1702.55511855 866.86178167 1688.59103321 876.97515869 1674.3225708 C877.55298096 1673.50997803 878.13080322 1672.69738525 878.72613525 1671.86016846 C886.77132459 1660.53055584 894.56842901 1649.0798553 901.97515869 1637.3225708 C902.47338135 1636.53334229 902.971604 1635.74411377 903.48492432 1634.93096924 C916.76156539 1613.84210786 929.25334537 1592.31304815 940.97515869 1570.3225708 C941.48321045 1569.36963135 941.99126221 1568.41669189 942.51470947 1567.43487549 C949.35673898 1554.55702239 955.85831131 1541.56029355 961.97515869 1528.3225708 C961.23652588 1528.01964111 960.49789307 1527.71671143 959.73687744 1527.40460205 C951.39700852 1523.9605647 943.17519635 1520.31585811 935.02203369 1516.45147705 C934.34181152 1516.13033936 933.66158936 1515.80920166 932.96075439 1515.47833252 C931.61386059 1514.84157238 930.26858929 1514.20136686 928.92510986 1513.55743408 C925.59666159 1511.87961455 925.59666159 1511.87961455 921.97515869 1511.3225708 C921.67448486 1511.93439209 921.37381104 1512.54621338 921.06402588 1513.17657471 C914.13991589 1527.23152359 906.96940207 1541.10732356 899.36724854 1554.80743408 C898.07667756 1557.13915317 896.79892411 1559.47731084 895.52593994 1561.81866455 C870.42344868 1607.80705091 840.6350651 1650.98480294 807.46783447 1691.49786377 C806.15329667 1693.10480776 804.84317567 1694.71536271 803.53375244 1696.32647705 C799.10612308 1701.76794641 794.60628136 1707.14239383 790.06060791 1712.48516846 C787.1490301 1715.91336574 784.29737923 1719.38249353 781.47515869 1722.8850708 C777.3470855 1727.96008551 772.97170278 1732.76272496 768.52593994 1737.5569458 C766.49113986 1739.76313027 764.49869631 1741.98889341 762.53765869 1744.2600708 C758.02764638 1749.45244904 753.33732272 1754.4791323 748.65386963 1759.51446533 C746.97762374 1761.31991575 745.3082733 1763.13156469 743.63922119 1764.94366455 C736.10408913 1773.08921096 728.37327072 1781.02959643 720.53765869 1788.8850708 C719.61420654 1789.81311523 718.69075439 1790.74115967 717.73931885 1791.69732666 C713.2418014 1796.18466873 708.69368017 1800.53424997 703.87188721 1804.67095947 C700.53742604 1807.57450302 697.36515546 1810.65026284 694.16265869 1813.6975708 C688.84358287 1818.72100583 683.45223062 1823.54041532 677.72515869 1828.09991455 C675.12863126 1830.19852834 672.60837927 1832.3607406 670.09283447 1834.55450439 C662.99709648 1840.73568944 655.64186821 1846.49419368 648.13531494 1852.1663208 C644.3544892 1855.02344675 640.62679492 1857.94207419 636.91265869 1860.8850708 C618.30893842 1875.56675301 598.95421429 1889.1410266 579.22515869 1902.2600708 C578.44046204 1902.78237274 577.65576538 1903.30467468 576.84729004 1903.84280396 C564.70567067 1911.91745963 552.52379838 1919.88993319 539.97515869 1927.3225708 C539.00594482 1927.89700928 538.03673096 1928.47144775 537.03814697 1929.06329346 C458.17667752 1975.58082847 372.72742096 2012.46942013 260.97515869 2044.3225708 C259.8209845 2044.62167358 259.8209845 2044.62167358 258.64349365 2044.92681885 C193.74408763 2061.66605673 126.86197796 2070.24220154 59.97515869 2073.3225708 C58.787771 2073.38041748 57.6003833 2073.43826416 56.37701416 2073.49786377 C-42.0703066 2078.12696201 -140.48865066 2069.32294294 -281.02484131 2034.3225708 C-281.77296082 2034.09031799 -282.52108032 2033.85806519 -283.29187012 2033.61877441 C-340.7853684 2015.75216824 -395.84565825 1992.35306707 -449.86419678 1965.87139893 C-452.72821622 1964.46792764 -455.59675862 1963.07418526 -458.46624756 1961.6819458 C-470.36080721 1955.86824124 -481.85359694 1949.42991439 -493.33831787 1942.84942627 C-496.49568379 1941.05497276 -499.67698029 1939.30791719 -502.86444092 1937.56768799 C-535.09073565 1919.92680521 -566.23439582 1899.18665873 -595.71234131 1877.2600708 C-596.50922363 1876.66992188 -597.30610596 1876.07977295 -598.12713623 1875.47174072 C-604.82217537 1870.50092564 -611.44990614 1865.45118648 -618.02484131 1860.3225708 C-618.8328418 1859.69584473 -618.8328418 1859.69584473 -619.65716553 1859.05645752 C-637.80199662 1844.98139629 -655.4653649 1830.28950356 -672.36468506 1814.7366333 C-674.52975244 1812.7718585 -676.71516608 1810.84052244 -678.91937256 1808.92022705 C-690.9539276 1798.4109018 -702.28322861 1787.16704942 -713.58734131 1775.8850708 C-714.19952515 1775.27547516 -714.81170898 1774.66587952 -715.44244385 1774.03781128 C-727.19022485 1762.32919479 -727.19022485 1762.32919479 -732.50994873 1756.08258057 C-735.1986344 1752.95885213 -738.06532865 1750.00088534 -740.89984131 1747.0100708 C-745.71742363 1741.88754611 -750.31251236 1736.67346549 -754.70062256 1731.1741333 C-756.94703848 1728.41802638 -759.26567501 1725.74768804 -761.6161499 1723.08087158 C-767.39591859 1716.51844361 -772.82528453 1709.78072504 -778.08294678 1702.79400635 C-781.89179836 1697.75026701 -785.84638051 1692.85867282 -789.89984131 1688.0100708 C-797.0002904 1679.48339545 -803.67236048 1670.66603465 -810.25042725 1661.73223877 C-811.37281837 1660.20802297 -812.49810371 1658.68593049 -813.62738037 1657.16680908 C-840.53264968 1620.96402648 -863.91312542 1582.13698936 -885.02484131 1542.3225708 C-885.58139404 1541.27794678 -886.13794678 1540.23332275 -886.71136475 1539.15704346 C-909.43867204 1496.3926264 -928.58832936 1451.86143422 -945.02484131 1406.3225708 C-945.43832825 1405.17845734 -945.43832825 1405.17845734 -945.86016846 1404.01123047 C-974.79434005 1323.74162469 -991.99624234 1239.82066709 -1000.02484131 1134.3225708 C-1000.06614166 1133.52266724 -1000.10744202 1132.72276367 -1000.1499939 1131.89862061 C-1001.02313966 1114.70563309 -1001.22659538 1097.53581535 -1001.21234131 1080.3225708 C-1001.21207443 1079.6474432 -1001.21180756 1078.9723156 -1001.21153259 1078.27672958 C-1001.19998613 1054.91120381 -1000.79596398 1031.62802505 -999.02484131 1008.3225708 C-998.96167725 1007.48667419 -998.89851318 1006.65077759 -998.83343506 1005.78955078 C-991.38680321 908.59320988 -970.29911631 813.18721891 -928.02484131 702.3225708 C-927.58994385 701.26328369 -927.15504639 700.20399658 -926.70697021 699.11260986 C-909.98159318 658.45149434 -890.29220817 618.94040082 -867.7387085 581.20147705 C-866.0073021 578.29310893 -864.29965269 575.37177624 -862.59515381 572.4475708 C-846.89455264 545.68666226 -829.48329486 519.53450618 -810.96234131 494.6350708 C-810.37219238 493.83818848 -809.78204346 493.04130615 -809.17401123 492.22027588 C-804.20324286 485.52529966 -799.15506093 478.89618019 -794.02484131 472.3225708 C-793.58043701 471.75199951 -793.13603271 471.18142822 -792.67816162 470.59356689 C-784.36913269 459.93254201 -775.86761725 449.44938466 -767.10638428 439.15606689 C-764.23283754 435.77406954 -761.42616347 432.34784624 -758.64984131 428.8850708 C-754.02206914 423.19191223 -749.03093105 417.87214318 -744.01312256 412.5256958 C-741.82023877 410.18643988 -739.67652758 407.81804721 -737.58734131 405.3850708 C-730.05715946 396.66888532 -722.09377789 388.26827239 -713.87298584 380.20318604 C-712.14611863 378.44597889 -710.54812287 376.63782501 -708.95452881 374.7600708 C-704.40169842 369.52506913 -699.50160668 364.65337982 -694.58734131 359.7600708 C-693.68435303 358.85321533 -692.78136475 357.94635986 -691.85101318 357.01202393 C-687.31394612 352.48152756 -682.72539403 348.08659585 -677.85906982 343.91168213 C-674.89536051 341.34402821 -672.06433832 338.63778449 -669.21234131 335.9475708 C-664.24165176 331.29617902 -659.16262939 326.8710703 -653.84515381 322.61553955 C-651.22834911 320.48802659 -648.68050531 318.30281408 -646.13909912 316.0869751 C-638.43041293 309.3748779 -630.39835373 303.17086734 -622.24554443 297.01104736 C-618.4797254 294.14776631 -614.75372358 291.23368394 -611.02484131 288.3225708 C-602.39856136 281.60221551 -593.74472422 274.9211347 -585.02484131 268.3225708 C-584.31343994 267.78197021 -583.60203857 267.24136963 -582.86907959 266.68438721 C-562.13895984 250.97806576 -540.32360871 236.69523153 -518.02484131 223.3225708 C-516.64860596 222.49644287 -516.64860596 222.49644287 -515.24456787 221.65362549 C-477.56141996 199.13611626 -438.31095162 179.66040504 -398.06011963 162.20739746 C-396.13843181 161.37195368 -394.21923109 160.53113627 -392.3012085 159.68731689 C-358.47724343 144.81212735 -324.09887174 131.50334433 -288.46624756 121.63116455 C-287.69441698 121.41689001 -286.9225864 121.20261547 -286.12736702 120.98184776 C-269.83341502 116.46780285 -253.46176196 112.29443401 -237.04266357 108.26226807 C-233.98581656 107.51137919 -230.93056741 106.7544679 -227.87664795 105.99176025 C-199.70924359 98.95806499 -171.35969591 92.61486282 -142.64984131 88.1975708 C-141.90141968 88.08038696 -141.15299805 87.96320313 -140.38189697 87.84246826 C-111.15361948 83.29330242 -81.55560693 80.05795567 -52.02484131 78.3225708 C-50.78532715 78.23717041 -49.54581299 78.15177002 -48.26873779 78.06378174 C-29.61541153 76.87532647 -10.89485754 77.07665949 7.78765869 77.0725708 C8.71207008 77.07212894 9.63648148 77.07168709 10.58890533 77.07123184 C39.8215846 77.06391154 68.85623945 77.49995209 97.97515869 80.3225708 C98.89339417 80.40978394 99.81162964 80.49699707 100.75769043 80.58685303 C114.85959264 81.93161661 128.92502611 83.51642229 142.97515869 85.3225708 C143.81635254 85.43065063 144.65754639 85.53873047 145.52423096 85.65008545 C231.15334622 96.76101388 316.16691822 119.32420494 395.97515869 152.3225708 C396.62321472 152.59051453 397.27127075 152.85845825 397.93896484 153.13452148 C439.49784483 170.35122154 480.05950126 189.72481399 518.97515869 212.3225708 C519.88813721 212.85060303 520.80111572 213.37863525 521.74176025 213.92266846 C572.05390156 243.08386202 620.64736246 276.89781395 664.88140869 314.6975708 C667.7706719 317.16173044 670.71034327 319.5591808 673.66265869 321.9475708 C678.11419677 325.57091575 682.39898324 329.34220952 686.64312744 333.2053833 C688.73339758 335.10308249 690.84501984 336.96990495 692.97515869 338.8225708 C707.95164982 351.89350441 722.36123978 365.53519453 736.394104 379.61114502 C738.49809607 381.72056737 740.60747904 383.82449519 742.71734619 385.92803955 C744.08485491 387.29620815 745.45205389 388.66468642 746.81890869 390.0335083 C747.43568481 390.64826019 748.05246094 391.26301208 748.68792725 391.89639282 C752.41495969 395.6432796 755.95462121 399.5077777 759.40328979 403.5125885 C761.81341479 406.28780951 764.33573502 408.95474003 766.85015869 411.6350708 C771.38864393 416.50842629 775.66864667 421.52561058 779.83843994 426.7210083 C781.93398363 429.27243809 784.11479024 431.70583853 786.35015869 434.1350708 C791.34640125 439.63180053 795.88804611 445.44999642 800.42584229 451.32305908 C802.076192 453.45296204 803.7375771 455.57391101 805.40093994 457.69366455 C811.27443607 465.18994105 817.06404889 472.72896357 822.65753174 480.43658447 C826.61856026 485.8787989 830.69644356 491.22778406 834.78765869 496.5725708 C840.5002565 504.03849361 846.12343227 511.56147397 851.67657471 519.14654541 C856.11950849 525.19970381 860.65893128 531.17454283 865.22515869 537.1350708 C870.44460013 543.95498452 875.5665663 550.82017454 880.51031494 557.84210205 C882.28340876 560.35947536 884.08725644 562.8517146 885.90875244 565.33428955 C900.92432352 585.82829442 916.02383612 606.68019331 925.77032471 630.27374268 C926.93436903 633.08032328 927.80292617 635.15033828 929.97515869 637.3225708 C940.9768135 636.14382207 952.74181245 630.3779441 962.97515869 626.3225708 C961.10453833 620.2525986 958.84061737 614.60785163 955.98297119 608.9397583 C955.40986458 607.78726845 955.40986458 607.78726845 954.82518005 606.61149597 C953.59078861 604.13646154 952.34647199 601.66662115 951.10015869 599.1975708 C950.67342865 598.34843109 950.24669861 597.49929138 949.80703735 596.62442017 C942.92648767 582.94497328 935.74717262 569.51942298 927.97515869 556.3225708 C926.71188972 554.15214229 925.44888167 551.9815619 924.18609619 549.81085205 C912.28168608 529.44616664 899.9488404 509.34296549 885.97515869 490.3225708 C884.70780635 488.55007448 883.4474859 486.77271554 882.18756104 484.99493408 C877.23553141 478.01353958 872.15632343 471.1361573 866.97515869 464.3225708 C866.57297119 463.79276611 866.17078369 463.26296143 865.75640869 462.71710205 C859.9828653 455.12128403 854.05424963 447.67752033 847.97515869 440.3225708 C846.47416385 438.49005188 844.97416817 436.65671411 843.47515869 434.8225708 C842.73265869 433.9150708 841.99015869 433.0075708 841.22515869 432.0725708 C838.97515869 429.3225708 836.72515869 426.5725708 834.47515869 423.8225708 C833.3575415 422.45745361 833.3575415 422.45745361 832.21734619 421.0647583 C830.74111009 419.25932669 829.26709133 417.45207939 827.79547119 415.6428833 C823.27770055 410.09615422 818.69714632 404.6093801 814.06158447 399.16119385 C811.14974253 395.73253807 808.29770636 392.26305407 805.47515869 388.7600708 C801.41690101 383.77088663 797.13000303 379.04586465 792.74859619 374.34210205 C790.72320045 372.16203474 788.77177708 369.93031255 786.83282471 367.67315674 C782.89209569 363.16367761 778.71817955 358.92130891 774.47906494 354.69366455 C773.6866893 353.90033218 772.89431366 353.10699982 772.07792664 352.28962708 C770.41265586 350.62367999 768.7461384 348.95897824 767.07843018 347.29547119 C764.54481247 344.76720946 762.01657702 342.23365419 759.48883057 339.69952393 C757.86089586 338.0722501 756.23265095 336.44528655 754.60406494 334.81866455 C753.48494469 333.69650795 753.48494469 333.69650795 752.34321594 332.55168152 C748.24749076 328.47394815 744.06470168 324.56376805 739.6739502 320.80461121 C737.3785906 318.80211964 735.27281596 316.64272564 733.16265869 314.4475708 C729.86795124 311.1128669 726.51699434 308.0542458 722.85015869 305.1350708 C717.99023527 301.2595228 713.4801546 297.10382087 708.97515869 292.8225708 C703.74406055 287.85982793 698.4474063 283.1144656 692.80328369 278.6194458 C689.34704916 275.81244869 686.01015516 272.88253118 682.66265869 269.9475708 C676.27461279 264.37659121 669.74112024 259.05438407 663.01861572 253.89337158 C660.70550828 252.11529114 658.40137486 250.3258332 656.09625244 248.53741455 C646.11522817 240.82886393 635.98887247 233.44796406 625.52593994 226.4085083 C621.80939578 223.90554569 618.15709618 221.32482552 614.51885986 218.70977783 C605.96448078 212.56791809 597.14215243 207.02668716 588.11138916 201.61651611 C585.49951896 200.03446902 582.92284696 198.40130751 580.34698486 196.76153564 C536.59388727 168.97001546 489.61584528 145.64580156 441.97515869 125.3225708 C441.22611267 125.00155396 440.47706665 124.68053711 439.70532227 124.34979248 C414.05665313 113.3613287 387.98847116 103.73118851 361.68702698 94.42752075 C355.66757059 92.29405869 349.66853368 90.11494849 343.69000244 87.8694458 C318.64076499 78.47629856 293.22872363 71.07508144 267.15875244 65.06866455 C266.33753717 64.87895332 265.51632191 64.6892421 264.67022133 64.49378204 C245.49610261 60.08282497 226.20617032 56.31005511 206.87579346 52.65509033 C202.10043441 51.75212709 197.32776005 50.83575254 192.55561543 49.91597366 C163.00090752 44.22739988 133.40792615 38.93018167 103.39971924 36.2913208 C100.84511481 36.06662996 98.29202325 35.82836067 95.73883057 35.5881958 C79.77381616 34.10883966 63.81260512 33.22036434 47.78765869 32.7600708 C47.07261169 32.73922424 46.3575647 32.71837769 45.62084961 32.69689941 C32.19357351 32.3110945 18.79961756 32.17494457 5.3682251 32.37677002 Z " fill="#FDFDFD" transform="translate(2134.0248413085938,1056.6774291992188)"/>
<path d="M0 0 C0.66 0.33 1.32 0.66 2 1 C-14.83 17.83 -31.66 34.66 -49 52 C-49.66 51.67 -50.32 51.34 -51 51 C-50.43152344 50.443125 -49.86304688 49.88625 -49.27734375 49.3125 C-48.50519531 48.549375 -47.73304687 47.78625 -46.9375 47 C-46.18339844 46.2575 -45.42929688 45.515 -44.65234375 44.75 C-42.64337899 42.66706747 -40.75503644 40.57260883 -38.875 38.37890625 C-34.63870036 33.49866158 -30.08922333 28.9387188 -25.51196289 24.3815918 C-24.06475615 22.93974779 -22.62297974 21.49262884 -21.18164062 20.04492188 C-16.47854949 15.3387592 -11.72447272 10.7452988 -6.65405273 6.43359375 C-4.31106889 4.40289247 -2.15768482 2.22511247 0 0 Z " fill="#B8B8B8" transform="translate(1463,1393)"/>
<path d="M0 0 C0.66 0.33 1.32 0.66 2 1 C-6.25 9.25 -14.5 17.5 -23 26 C-23.66 25.67 -24.32 25.34 -25 25 C-11.89859973 10.6004427 -11.89859973 10.6004427 -5.58984375 5.33203125 C-3.6057258 3.66966216 -1.79172801 1.86638334 0 0 Z " fill="#BABABA" transform="translate(2208,2279)"/>
</svg>
