<?xml version="1.0" encoding="UTF-8"?>
<svg version="1.1" xmlns="http://www.w3.org/2000/svg" width="1920" height="1920" viewBox="0 0 1920 1920">
<path d="M0 0 C5.66406926 0.71784982 11.33040098 1.4174704 16.9964962 2.1191082 C28.74384291 3.57445803 40.48927109 5.04477612 52.23364258 6.52392578 C69.98736578 8.75941024 87.74466567 10.96121746 105.51202393 13.08575439 C107.57126461 13.33199 109.63046481 13.57856428 111.68963623 13.82537842 C181.41752005 22.82609578 181.41752005 22.82609578 251.51098633 27.66455078 C252.71698486 27.7009668 253.9229834 27.73738281 255.16552734 27.77490234 C257.44692505 27.83665024 259.72873335 27.88548094 262.01074219 27.91748047 C272.65247648 28.17130639 282.96893265 30.0117926 292.48754883 34.93408203 C293.15383301 35.27375 293.82011719 35.61341797 294.5065918 35.96337891 C310.80616709 44.71996185 321.26421369 59.93695525 326.88208008 77.30126953 C331.45068766 95.24702305 329.0651648 114.9352315 320.42114258 131.14501953 C312.73594071 143.80830715 299.71178795 153.32419818 285.42504883 157.43408203 C267.38113039 160.82618859 248.20564715 159.72217764 229.93115234 159.91088867 C213.99198169 160.082565 198.27113652 160.68462143 182.42504883 162.43408203 C181.00951965 162.58189982 179.59391493 162.72899658 178.17822266 162.87524414 C137.59945983 167.19890034 98.06911463 175.60717709 58.67504883 186.12158203 C57.81740936 186.34969574 56.9597699 186.57780945 56.07614136 186.81283569 C46.47722631 189.37592946 37.00458483 192.14065981 27.60180664 195.35131836 C14.77556909 199.72300323 1.58286615 203.213158 -11.57495117 206.43408203 C-12.59588867 206.68416016 -13.61682617 206.93423828 -14.66870117 207.19189453 C-38.1751539 211.98775127 -62.60976595 208.05320573 -82.63037109 194.93896484 C-97.73499868 184.65370438 -106.059211 168.95154325 -110.07495117 151.35986328 C-110.88148597 146.6403745 -110.92136754 142.20051472 -110.57495117 137.43408203 C-110.5053418 136.34224609 -110.43573242 135.25041016 -110.36401367 134.12548828 C-109.11423714 121.66938217 -104.00443212 109.73519471 -94.28588867 101.49267578 C-79.185803 91.01351934 -61.92898913 85.77220108 -43.46557617 88.97314453 C-40.75948821 89.65340421 -38.18949077 90.46260528 -35.57495117 91.43408203 C-34.86983398 91.68931641 -34.1647168 91.94455078 -33.43823242 92.20751953 C-24.15802565 96.1821464 -17.78245397 104.26253336 -13.59448242 113.21533203 C-11.88523485 118.61157723 -12.08814351 123.84480887 -12.57495117 129.43408203 C-21.03472305 133.30140632 -28.33689819 133.91958555 -37.57495117 133.43408203 C-38.66223091 130.17224281 -38.5462772 128.03419529 -38.38745117 124.62158203 C-38.382862 120.81257229 -38.52010163 118.57120588 -39.94995117 114.99658203 C-45.14770082 109.92258833 -50.82499084 107.16002884 -58.13745117 106.93408203 C-66.3788158 107.38677671 -72.65039979 109.56875373 -78.71557617 115.27001953 C-86.21851753 124.00243447 -88.42151023 133.18694029 -87.57495117 144.43408203 C-86.88060004 147.90583771 -85.84666936 151.13314394 -84.57495117 154.43408203 C-84.19209961 155.44921875 -84.19209961 155.44921875 -83.80151367 156.48486328 C-79.62104232 166.05392385 -71.5704682 173.43131204 -62.57495117 178.43408203 C-61.90206055 178.81177734 -61.22916992 179.18947266 -60.53588867 179.57861328 C-45.32034058 187.18638733 -27.3512738 187.00282547 -11.46362305 181.73388672 C6.82004703 174.94793074 20.89054409 163.19728567 29.42504883 145.43408203 C39.54458082 121.78302394 39.66411737 97.3013561 30.98754883 73.15673828 C21.63020986 50.01579278 5.18900859 35.42420837 -17.57495117 25.43408203 C-57.7090625 9.75286637 -102.30509075 21.40274164 -140.25537109 37.64257812 C-158.74263357 45.7835267 -175.27198496 56.59240049 -191.57495117 68.43408203 C-192.17952148 68.86994629 -192.7840918 69.30581055 -193.40698242 69.75488281 C-204.61717471 77.85819305 -214.99713265 86.86393887 -225.10400391 96.2890625 C-227.87987159 98.87759645 -230.67457446 101.42321208 -233.57495117 103.87158203 C-248.6720631 116.7670318 -262.00597547 133.36218374 -273.57495117 149.43408203 C-274.03369629 150.06685059 -274.49244141 150.69961914 -274.96508789 151.3515625 C-296.56468276 181.21213003 -313.83271517 213.06591109 -324.57495117 248.43408203 C-324.79989258 249.16836426 -325.02483398 249.90264648 -325.2565918 250.65917969 C-326.83617998 255.88351252 -328.23702555 261.14319436 -329.57495117 266.43408203 C-329.81600586 267.36800781 -330.05706055 268.30193359 -330.30541992 269.26416016 C-343.52553209 321.30576923 -343.56855731 377.19245864 -331.57495117 429.43408203 C-331.34404785 430.44841309 -331.11314453 431.46274414 -330.87524414 432.5078125 C-322.01384515 470.90720813 -306.6314001 507.69687324 -284.57495117 540.43408203 C-284.13795898 541.08344727 -283.7009668 541.7328125 -283.25073242 542.40185547 C-278.01189035 550.11101308 -272.31260171 557.31460225 -266.21557617 564.35986328 C-263.82633294 567.12124404 -261.53958361 569.95423265 -259.26245117 572.80908203 C-245.76512755 589.32176518 -230.29970593 604.2242826 -213.57495117 617.43408203 C-212.35509078 618.42099237 -211.13641905 619.40937308 -209.91870117 620.39892578 C-208.61680773 621.45254588 -207.31472551 622.50593276 -206.01245117 623.55908203 C-205.42326904 624.03821045 -204.83408691 624.51733887 -204.22705078 625.01098633 C-187.79685821 638.21144673 -169.39062915 649.31419192 -150.82348633 659.22314453 C-148.5529653 660.44592241 -146.30421796 661.70311897 -144.05541992 662.96533203 C-127.23331567 672.2557175 -109.41063372 679.35533894 -91.57495117 686.43408203 C-90.39787598 686.90152832 -89.22080078 687.36897461 -88.00805664 687.85058594 C-70.91984219 694.5370531 -53.39400354 699.19566881 -35.57495117 703.43408203 C-34.35855957 703.72444336 -33.14216797 704.01480469 -31.88891602 704.31396484 C13.67602982 715.07968444 63.11881811 720.92227864 105.42504883 696.43408203 C122.43690282 685.91965873 134.18377173 671.75690602 139.73364258 652.46923828 C144.53730505 631.3819742 141.58654428 608.29284617 130.67504883 589.62158203 C119.78488843 572.92198663 102.65033649 562.81525703 83.42504883 558.43408203 C60.5043791 554.23195925 36.61755576 559.50735013 17.42504883 572.43408203 C7.29216784 579.59622743 0.42984137 587.63610697 -5.57495117 598.43408203 C-6.00163086 599.13919922 -6.42831055 599.84431641 -6.86791992 600.57080078 C-7.95312445 602.48757966 -8.77791751 604.38033018 -9.57495117 606.43408203 C-9.94491211 607.33384766 -10.31487305 608.23361328 -10.69604492 609.16064453 C-13.81870987 618.38817347 -13.97899451 627.54161806 -14.01245117 637.18408203 C-14.02157532 638.18702805 -14.02157532 638.18702805 -14.03088379 639.2102356 C-14.10110526 651.0333227 -12.04905931 660.89538188 -7.19995117 671.62158203 C-6.89758545 672.30430176 -6.59521973 672.98702148 -6.28369141 673.69042969 C-4.08654632 678.55400172 -1.5164483 682.9772682 1.42504883 687.43408203 C1.42504883 688.09408203 1.42504883 688.75408203 1.42504883 689.43408203 C-45.91220137 688.37572888 -96.31636472 657.53280326 -130.08666992 626.70361328 C-131.70258481 625.22975685 -133.32966351 623.76801453 -134.96948242 622.32080078 C-144.81434821 613.6210567 -154.1862063 604.53326873 -162.34838867 594.21923828 C-164.32692586 591.74433123 -166.37143713 589.34510814 -168.45239258 586.95629883 C-189.89732589 562.19659371 -207.09422055 533.19401748 -220.65014648 503.44824219 C-221.54384497 501.50182916 -222.45718511 499.56622829 -223.37963867 497.63330078 C-238.57495117 465.73781587 -238.57495117 465.73781587 -238.57495117 455.43408203 C-235.56813317 456.77407701 -233.57732508 458.23253495 -231.32495117 460.62158203 C-228.83479885 463.19154693 -226.29021919 465.60295077 -223.57495117 467.93408203 C-221.06823977 470.08813822 -218.72243947 472.2859788 -216.44995117 474.68408203 C-195.61710194 495.80037139 -167.43584618 511.46400847 -140.57495117 523.43408203 C-139.59268555 523.8783252 -139.59268555 523.8783252 -138.59057617 524.33154297 C-84.47494527 548.60240343 -21.90507026 552.34021633 36.42504883 545.43408203 C37.5678833 545.30783447 38.71071777 545.18158691 39.88818359 545.05151367 C51.34317111 543.71940376 62.65004442 541.71473585 73.98754883 539.62158203 C74.96425537 539.44223114 75.94096191 539.26288025 76.94726562 539.07809448 C91.16827836 536.46350992 105.36331277 533.81701248 119.42504883 530.43408203 C120.06448425 530.28046204 120.70391968 530.12684204 121.36273193 529.96856689 C139.98231421 525.4865848 158.50877514 520.78125971 176.83862305 515.21630859 C179.30259001 514.47111791 181.77074236 513.7424858 184.24145508 513.02001953 C210.86166845 505.2044325 237.11368933 496.23251112 263.32574463 487.16052246 C266.70084821 485.99260611 270.0766014 484.82657168 273.45239258 483.66064453 C274.40729332 483.33082329 274.40729332 483.33082329 275.38148499 482.99433899 C281.72768879 480.80277994 288.07551695 478.61597916 294.42504883 476.43408203 C295.34672852 476.11681152 296.2684082 475.79954102 297.21801758 475.47265625 C318.04349504 468.32472857 340.65482026 461.48736902 361.97973633 471.19970703 C362.78668945 471.60705078 363.59364258 472.01439453 364.42504883 472.43408203 C365.35575195 472.88267578 366.28645508 473.33126953 367.24536133 473.79345703 C383.1461544 482.17977609 393.76051763 495.87858585 399.92504883 512.55908203 C404.85598458 530.34099635 401.29544182 547.86811442 392.51733398 563.58642578 C385.98729248 574.63232522 376.73026016 582.31646927 365.76733398 588.66357422 C360.0962088 591.96308768 354.66948952 595.56906936 349.23754883 599.24658203 C340.02994938 605.45202864 330.62088627 611.2152474 321.06420898 616.86279297 C316.26389583 619.72077775 311.50407956 622.64524285 306.73754883 625.55908203 C289.55681404 636.02792923 272.14579247 645.98454278 254.53491211 655.7109375 C251.89735396 657.17238242 249.26616422 658.64389939 246.63989258 660.12548828 C233.41694353 667.57573759 219.93722742 674.52528455 206.42504883 681.43408203 C205.43359863 681.94148926 204.44214844 682.44889648 203.4206543 682.97167969 C137.58995096 716.55969611 70.35356643 742.04142975 -4.38745117 741.68408203 C-5.5272644 741.68131256 -6.66707764 741.67854309 -7.84143066 741.6756897 C-24.174 741.62917488 -40.33543983 741.30382036 -56.57495117 739.43408203 C-58.48898164 739.23715585 -60.40304481 739.04054733 -62.31713867 738.84423828 C-88.52499035 735.99873951 -114.19636862 730.45943535 -139.57495117 723.43408203 C-141.05257696 723.03605905 -142.5304113 722.63880866 -144.00854492 722.24267578 C-149.8037483 720.65195795 -155.30043094 718.77492505 -160.86425781 716.51586914 C-163.55900547 715.44044566 -166.2685277 714.42400618 -168.99291992 713.42626953 C-189.16034721 706.03880589 -208.8155388 697.93250902 -227.57495117 687.43408203 C-228.28973633 687.0420459 -229.00452148 686.65000977 -229.7409668 686.24609375 C-249.23518811 675.53625267 -267.95628859 663.24636825 -284.57495117 648.43408203 C-286.401455 646.94649039 -288.2347375 645.46718014 -290.07495117 643.99658203 C-299.72543611 636.11348241 -308.67142157 627.64844718 -316.96557617 618.35205078 C-318.64019262 616.47938838 -320.33653169 614.62580083 -322.05932617 612.79736328 C-359.70857838 572.69011849 -384.85680299 518.87398857 -396.57495117 465.43408203 C-396.72673828 464.76022461 -396.87852539 464.08636719 -397.03491211 463.39208984 C-418.72645956 365.42071473 -396.26701008 262.6833254 -341.57495117 173.43408203 C-329.80701991 155.21486063 -315.93532979 138.64741273 -301.57495117 122.43408203 C-300.99487305 121.76119141 -300.41479492 121.08830078 -299.81713867 120.39501953 C-289.16478868 108.23880836 -277.72080732 96.25757308 -264.95385742 86.31689453 C-262.50290011 84.37705639 -260.23662666 82.3142405 -257.94995117 80.18408203 C-251.5935947 74.40830615 -244.74294405 69.30304959 -237.87231445 64.16210938 C-235.6132476 62.46288778 -233.37258684 60.74159991 -231.13354492 59.01611328 C-219.43108096 50.09074085 -207.10817315 42.48391219 -194.39331055 35.08789062 C-191.75470865 33.53956342 -189.14702693 31.94850606 -186.53979492 30.34814453 C-129.19860482 -4.0508781 -64.64782354 -8.23966692 0 0 Z" fill="currentColor" transform="translate(957.574951171875,542.56591796875)"/>
<path d="M0 0 C11.41902627 8.96070661 19.34516176 19.94210974 24.55078125 33.5234375 C24.89109375 34.40773438 25.23140625 35.29203125 25.58203125 36.203125 C31.04983795 53.66972973 28.46692449 74.17922511 20.36328125 90.2734375 C10.14004996 107.93174609 -4.75974129 119.6639503 -24.19921875 125.8984375 C-44.33164146 130.82798133 -65.87034119 128.18029312 -83.74072266 117.61425781 C-97.74454629 108.67326267 -107.5108324 96.01653521 -113.44921875 80.5234375 C-113.78953125 79.63914062 -114.12984375 78.75484375 -114.48046875 77.84375 C-119.9304151 60.43419917 -117.35657197 39.99141034 -109.38671875 23.8984375 C-99.19774063 6.23609377 -84.19900165 -5.62730144 -64.69921875 -11.8515625 C-42.60267489 -17.26203312 -18.41734571 -13.65757211 0 0 Z M-90.44921875 9.5234375 C-91.04734375 10.03003906 -91.64546875 10.53664063 -92.26171875 11.05859375 C-103.90422958 21.63560694 -110.40258061 37.92946385 -111.6875 53.390625 C-112.10622672 70.36007624 -106.678554 87.20449633 -95.19921875 99.8984375 C-81.51624153 114.26380484 -64.35757002 122.25709464 -44.44921875 122.8984375 C-27.10747459 122.2956496 -11.36512388 116.17466025 1.55078125 104.5234375 C2.14890625 104.01683594 2.74703125 103.51023437 3.36328125 102.98828125 C15.00579208 92.41126806 21.50414311 76.11741115 22.7890625 60.65625 C23.20778922 43.68679876 17.7801165 26.84237867 6.30078125 14.1484375 C-7.38219597 -0.21692984 -24.54086748 -8.21021964 -44.44921875 -8.8515625 C-61.79096291 -8.2487746 -77.53331362 -2.12778525 -90.44921875 9.5234375 Z" fill="currentColor" transform="translate(1067.44921875,1117.4765625)"/>
</svg>
